<?xml version="1.0" encoding="utf-8"?>
<!-- Generator: Adobe Illustrator 27.9.2, SVG Export Plug-In . SVG Version: 6.00 Build 0)  -->
<svg version="1.1" id="_x32_" xmlns="http://www.w3.org/2000/svg" xmlns:xlink="http://www.w3.org/1999/xlink" x="0px" y="0px"
	 viewBox="0 0 1516.6 512" style="enable-background:new 0 0 1516.6 512;" xml:space="preserve">
<style type="text/css">
	.st0{fill:#483D8B;}
	.st1{fill:#333333;}
</style>
<g>
	<path class="st0" d="M377.9,41.5c-53.5,1-85.2,32.7-106.4,63.9c-3.9,5.8-9.7,9.5-15.4,9.6c-5.8-0.1-11.6-3.9-15.4-9.6
		c-21.2-31.2-52.9-62.9-106.5-63.9C63.8,40.1,0,91.2,0,204.1c0,111.3,95.7,190.2,154.7,230.4c38.8,26.5,87.5,46,87.5,46
		c4.5,1.4,11.4,2.7,13.8,2.7c2.4,0,9.3-1.3,13.8-2.7c0,0,48.7-19.5,87.5-46c59-40.2,154.7-119.2,154.7-230.4
		C512,91.2,448.2,40.1,377.9,41.5z M116.7,315.2c-7.2,5.2-17.3,3.5-22.4-3.7c-13.1-18.4-22.9-39.2-26.8-62.3
		c-2.1-12.3-3.2-23.8-3.2-34.5c0-10.7,1.1-20.7,3.5-29.9c2.2-8.6,11-13.7,19.6-11.5c8.6,2.2,13.7,11,11.5,19.6
		c-1.6,6-2.5,13.2-2.5,21.8c0,8.5,0.9,18.2,2.7,29.1c3,17.5,10.4,33.7,21.2,49C125.6,300,123.9,310,116.7,315.2z M138.5,122.8
		c-5.1,3.1-8.8,6.3-11.5,9.7c-5.6,6.9-15.7,7.9-22.6,2.3c-6.9-5.6-7.9-15.7-2.3-22.6c5.4-6.6,12.1-12.2,19.8-16.9
		c7.6-4.6,17.5-2.2,22.1,5.4C148.5,108.4,146.1,118.3,138.5,122.8z"/>
</g>
<g>
	<g>
		<path class="st1" d="M554.1,267.6l8.3-6.7c11.1,1.7,20.5,3.6,28.3,5.8c0,13.3,1.1,24.7,3.3,34.2c7.8-5,18.9-9.2,33.3-12.5
			c2.8-10.5,4.2-17.5,4.2-20.8c0.5-6.7-0.8-13.6-4.2-20.8l10.8-5l16.7,13.3l6.7,6.7c-1.1,5.6-3.6,13.9-7.5,25
			c9.4,0,20.5,3.9,33.3,11.7c13.9,8.3,22.8,20,26.7,35c5,18.9,2.5,35.6-7.5,50c-12.2,17.8-34.5,30.5-66.7,38.3l-9.2-10.8
			c21.7-10.5,36.9-20,45.8-28.3c9.4-8.3,13.9-18.9,13.3-31.7c-0.6-11.7-4.5-21.9-11.7-30.8c-6.7-8.3-16.4-13-29.2-14.2
			c-8.3,23.3-17.8,45.3-28.3,65.8c3.9,6.7,8,13.3,12.5,20L610,405.9l-5.8-10.8c-5,7.2-11.7,11.7-20,13.3c-10.6,2.2-20-0.3-28.3-7.5
			c-7.2-6.7-11.1-15-11.7-25c-0.6-16.7,3.9-31.1,13.3-43.3c7.2-9.4,12.2-15,15-16.7c-1.1-7.8-3.1-17.2-5.8-28.3
			C565.5,282.6,561.4,275.9,554.1,267.6z M590.8,368.4c-3.9-7.8-7.5-17.8-10.8-30c-5.6,5.6-9.2,12-10.8,19.2
			c-2.8,11.1-0.3,18.9,7.5,23.3C581.1,382.6,585.8,378.4,590.8,368.4z M620,310.1c-6.7,2.8-13.3,6.7-20,11.7
			c2.8,10.6,4.7,17.5,5.8,20.8C610.3,334.2,615,323.4,620,310.1z"/>
		<path class="st1" d="M731.7,270.1l9.2-9.2c7.8,3.3,16.1,8.1,25,14.2c-5,19.5-7.8,35.8-8.3,49.2c-0.6,21.1,4.4,37,15,47.5
			l22.5-36.7l10,6.7l-17.5,45c1.7,1.7,4.7,3.1,9.2,4.2v9.2c0,4.5-2,7.8-5.8,10c-3.3,2.8-7.8,3.6-13.3,2.5
			c-9.5-2.2-18.6-10-27.5-23.3c-6.7-10.5-11.1-22.8-13.3-36.7c-3.3-22.2-2.8-46.7,1.7-73.3L731.7,270.1z M854.2,323.4
			c-6.1-15-16.1-29.4-30-43.3l11.7-8.3c17.8,12.2,31.1,26.4,40,42.5c9.4,16.1,15,33.1,16.7,50.8l-28.3,8.3
			C864.2,356.7,860.8,340.1,854.2,323.4z"/>
		<path class="st1" d="M920,267.6l8.3-6.7c11.1,1.7,20.5,3.6,28.3,5.8c0,13.3,1.1,24.7,3.3,34.2c7.8-5,18.9-9.2,33.3-12.5
			c2.8-10.5,4.2-17.5,4.2-20.8c0.5-6.7-0.8-13.6-4.2-20.8l10.8-5l16.7,13.3l6.7,6.7c-1.1,5.6-3.6,13.9-7.5,25
			c9.4,0,20.5,3.9,33.3,11.7c13.9,8.3,22.8,20,26.7,35c5,18.9,2.5,35.6-7.5,50c-12.2,17.8-34.5,30.5-66.7,38.3l-9.2-10.8
			c21.7-10.5,36.9-20,45.8-28.3c9.4-8.3,13.9-18.9,13.3-31.7c-0.6-11.7-4.5-21.9-11.7-30.8c-6.7-8.3-16.4-13-29.2-14.2
			c-8.3,23.3-17.8,45.3-28.3,65.8c3.9,6.7,8,13.3,12.5,20l-23.3,14.2l-5.8-10.8c-5,7.2-11.7,11.7-20,13.3c-10.6,2.2-20-0.3-28.3-7.5
			c-7.2-6.7-11.1-15-11.7-25c-0.6-16.7,3.9-31.1,13.3-43.3c7.2-9.4,12.2-15,15-16.7c-1.1-7.8-3.1-17.2-5.8-28.3
			C931.4,282.6,927.2,275.9,920,267.6z M956.7,368.4c-3.9-7.8-7.5-17.8-10.8-30c-5.6,5.6-9.2,12-10.8,19.2
			c-2.8,11.1-0.3,18.9,7.5,23.3C946.9,382.6,951.7,378.4,956.7,368.4z M985.8,310.1c-6.7,2.8-13.3,6.7-20,11.7
			c2.8,10.6,4.7,17.5,5.8,20.8C976.1,334.2,980.8,323.4,985.8,310.1z"/>
		<path class="st1" d="M1097.5,270.1l9.2-9.2c7.8,3.3,16.1,8.1,25,14.2c-5,19.5-7.8,35.8-8.3,49.2c-0.6,21.1,4.4,37,15,47.5
			l22.5-36.7l10,6.7l-17.5,45c1.7,1.7,4.7,3.1,9.2,4.2v9.2c0,4.5-2,7.8-5.8,10c-3.3,2.8-7.8,3.6-13.3,2.5
			c-9.5-2.2-18.6-10-27.5-23.3c-6.7-10.5-11.1-22.8-13.3-36.7c-3.3-22.2-2.8-46.7,1.7-73.3L1097.5,270.1z M1220,323.4
			c-6.1-15-16.1-29.4-30-43.3l11.7-8.3c17.8,12.2,31.1,26.4,40,42.5c9.4,16.1,15,33.1,16.7,50.8l-28.3,8.3
			C1230,356.7,1226.7,340.1,1220,323.4z"/>
		<path class="st1" d="M1360,312.6v-30h-81.7l-5-14.2h86.7v-30l26.7,1.7v28.3h47.5l15.8-10l23.3,17.5l-7.5,6.7h-79.2v30h33.3
			l12.5-8.3l25,15.8l-7.5,7.5v60.8c0,15-7,22.5-20.8,22.5h-17.5c-1.7-5.5-6.7-9.7-15-12.5v-13.3h23.3c2.8,0,4.2-1.4,4.2-4.2v-54.2
			h-37.5v102.5l-26.7,1.7V326.7h-35.8v83.3l-25.8,3.3V307.6l25.8,2.5v2.5H1360z"/>
	</g>
	<g>
		<path class="st1" d="M632.2,203.9l-3.9-9.3h12.4v-69.5l-24.8,75H608l-28.1-74.4v69h9.1l4.6,9.3h-30l-3.9-9.3h11.8v-90.9h-7.8
			l-3.9-9.3h24.8l30,81.6l26.1-81.6h22.2l4.6,9.3h-11.8v90.9h8.5l3.9,9.3H632.2z"/>
		<path class="st1" d="M748.4,115.8l-2-12h-47v40h37.2V136h8.5v25.2h-8.5V153h-37.2v41.6h47.7l2.6-11.5h9.1v20.8h-82.3l-4.6-9.3
			h12.4v-90.9h-7.8l-4.6-9.3h86.9v21.3H748.4z"/>
		<path class="st1" d="M803.3,94.4l3.3,9.3h-11.1v90.9h8.5l3.9,9.3h-34.6l-3.9-9.3h11.1v-90.9h-8.5l-3.9-9.3H803.3z"/>
		<path class="st1" d="M883.6,203.9l-3.9-9.3h12.4v-69.5l-24.8,75h-7.8l-28.1-74.4v69h9.1l4.6,9.3h-30l-3.9-9.3h11.8v-90.9H815
			l-3.9-9.3h24.8l30,81.6l26.1-81.6h22.2l4.6,9.3h-11.8v90.9h8.5l3.9,9.3H883.6z"/>
		<path class="st1" d="M999.9,115.8l-2-12h-47v40h37.2V136h8.5v25.2h-8.5V153h-37.2v41.6h47.7l2.6-11.5h9.1v20.8H928l-4.6-9.3h12.4
			v-90.9H928l-4.6-9.3h86.9v21.3H999.9z"/>
		<path class="st1" d="M1054.7,94.4l3.3,9.3h-11.1v90.9h8.5l3.9,9.3h-34.6l-3.9-9.3h11.1v-90.9h-8.5l-3.9-9.3H1054.7z"/>
		<path class="st1" d="M1204.3,110.9v20.3h-9.8c-0.9-5.1-3.1-10-6.5-14.8c-6.1-9.1-13.3-13.1-21.6-12c-8.3,2.2-15,7.7-20.2,16.4
			c-4.4,9.1-6.5,18.3-6.5,27.4c0,9.9,1.7,19,5.2,27.4c5.2,12,13.1,18.1,23.5,18.1c6.1,0,11.1-1.6,15-4.9c3.5-2.5,6.7-6.4,9.8-11.5
			c1.7-2.9,3.5-6.7,5.2-11.5l9.1,7.1c-5.2,12-11.8,20.8-19.6,26.3c-7,4.7-15,6.7-24.2,6c-7.8-0.7-15-3.8-21.6-9.3
			c-10.4-8.4-16.6-20.4-18.3-36.1c-1.3-9.5-0.9-18.8,1.3-27.9c2.6-10.9,6.7-19.3,12.4-25.2c9.1-10.2,20.7-14.2,34.6-12
			c6.1,1.1,12,3.8,17.6,8.2c3.9,3.7,7,6.4,9.1,8.2H1204.3z"/>
		<path class="st1" d="M1252,94.4l3.3,9.3h-11.1v90.9h8.5l3.9,9.3h-34.6l-3.9-9.3h11.1v-90.9h-8.5l-3.9-9.3H1252z"/>
		<path class="st1" d="M1287.2,203.9l-3.9-9.3h12.4v-90.9h-21.6l-3.3,15.3h-8.5V94.4h84.3v24.6h-8.5l-3.3-15.3h-24.2v90.9h11.1
			l3.9,9.3H1287.2z"/>
		<path class="st1" d="M1383.9,103.7l22.9,39.4l24.8-39.4h-8.5l-4.6-9.3h34l3.9,9.3h-13.1l-32,51.5v39.4h7.8l3.9,9.3h-34.6l-3.9-9.3
			h11.8v-39.4l-30-51.5h-7.8l-4.6-9.3h34.6l4.6,9.3H1383.9z"/>
	</g>
</g>
</svg>
