<!--?xml version="1.0" encoding="utf-8"?-->
<!-- Generator: Adobe Illustrator 18.1.1, SVG Export Plug-In . SVG Version: 6.00 Build 0)  -->

<svg version="1.1" id="_x32_" xmlns="http://www.w3.org/2000/svg" xmlns:xlink="http://www.w3.org/1999/xlink" x="0px" y="0px" viewBox="0 0 512 512" style="width: 256px; height: 256px; opacity: 1;" xml:space="preserve">
<style type="text/css">
	.st0{fill:#4B4B4B;}
</style>
<g>
	<path class="st0" d="M504.566,297.027l-81.918-125.862c2-3.171,3.203-6.904,3.203-10.937c0-11.372-9.221-20.592-20.592-20.592
		H290.168c-7.014-11.601-19.619-19.43-34.166-19.43c-14.542,0-27.151,7.829-34.166,19.43h-115.09
		c-11.372,0-20.592,9.221-20.592,20.592c0,4.033,1.202,7.766,3.207,10.937L7.434,297.027H0l2.997,12.676
		c11.131,47.052,53.287,82.076,103.748,82.092c50.456-0.016,92.62-35.04,103.751-82.092l2.997-12.676h-7.438L130.413,180.82h91.423
		c7.011,11.601,19.624,19.438,34.166,19.438c14.547,0,27.16-7.837,34.166-19.438h91.424l-75.647,116.206h-7.43l2.993,12.676
		c11.126,47.052,53.299,82.076,103.752,82.092c50.476-0.016,92.625-35.047,103.743-82.092L512,297.027H504.566z M181.486,297.027
		H32.008l74.738-114.822L181.486,297.027z M330.522,297.027l74.738-114.822l74.745,114.822H330.522z" style="fill: rgb(255, 255, 255);"></path>
</g>
</svg>
